<svg width="24" height="24" viewBox="0 0 24 24" fill="none" xmlns="http://www.w3.org/2000/svg">
<path d="M0 11.52C0 6.08942 0 3.37413 1.68706 1.68706C3.37413 0 6.08942 0 11.52 0H12.48C17.9106 0 20.6259 0 22.3129 1.68706C24 3.37413 24 6.08942 24 11.52V12.48C24 17.9106 24 20.6259 22.3129 22.3129C20.6259 24 17.9106 24 12.48 24H11.52C6.08942 24 3.37413 24 1.68706 22.3129C0 20.6259 0 17.9106 0 12.48V11.52Z" fill="#0077FF"/>
<path d="M12.7708 17.29C7.30075 17.29 4.18078 13.54 4.05078 7.30005H6.79077C6.88077 11.88 8.90073 13.82 10.5007 14.22V7.30005H13.0808V11.25C14.6608 11.08 16.3206 9.28005 16.8806 7.30005H19.4607C19.0307 9.74005 17.2307 11.54 15.9507 12.28C17.2307 12.88 19.2808 14.45 20.0608 17.29H17.2207C16.6107 15.39 15.0908 13.92 13.0808 13.72V17.29H12.7708Z" fill="white"/>
</svg>
