<svg width="24" height="24" viewBox="0 0 24 24" fill="none" xmlns="http://www.w3.org/2000/svg">
<path d="M12 24C18.6274 24 24 18.6274 24 12C24 5.37258 18.6274 0 12 0C5.37258 0 0 5.37258 0 12C0 18.6274 5.37258 24 12 24Z" fill="#FC3F1D"/>
<path d="M16.3441 19.5331H13.7098V6.50437H12.5363C10.3853 6.50437 9.25854 7.5799 9.25854 9.18539C9.25854 11.0069 10.0357 11.8508 11.6434 12.9263L12.9683 13.8193L9.16056 19.5309H6.32812L9.75511 14.4316C7.78442 13.0243 6.6755 11.6504 6.6755 9.33235C6.6755 6.43534 8.69517 4.46466 12.5185 4.46466H16.3263V19.5287H16.3441V19.5331Z" fill="white"/>
</svg>
