<svg width="24" height="24" viewBox="0 0 24 24" fill="none" xmlns="http://www.w3.org/2000/svg">
<path d="M12 0C14.3734 0 16.6935 0.703782 18.6668 2.02236C20.6402 3.34094 22.1783 5.21508 23.0865 7.40779C23.9948 9.60051 24.2324 12.0133 23.7694 14.3411C23.3064 16.6688 22.1635 18.807 20.4853 20.4853C18.807 22.1635 16.6688 23.3064 14.3411 23.7694C12.0133 24.2324 9.60051 23.9948 7.4078 23.0865C5.21509 22.1783 3.34094 20.6402 2.02237 18.6668C0.703789 16.6934 0 14.3734 0 12C0 8.8174 1.26428 5.76515 3.51472 3.51471C5.76515 1.26428 8.8174 0 12 0Z" fill="#005FF9"/>
<path d="M12.0005 4.50916C10.8271 4.50889 9.66991 4.78417 8.62226 5.31283C7.57462 5.8415 6.66574 6.60878 5.96882 7.5529C5.2719 8.49702 4.80641 9.59159 4.60983 10.7485C4.41324 11.9054 4.49105 13.0923 4.837 14.2136C5.18294 15.3349 5.78736 16.3594 6.60157 17.2044C7.41579 18.0495 8.41706 18.6915 9.52476 19.0789C10.6325 19.4662 11.8156 19.5881 12.979 19.4346C14.1424 19.2811 15.2536 18.8566 16.2229 18.1953L16.2432 18.181L15.2263 17.0075L15.21 17.0176C14.096 17.7319 12.7759 18.055 11.4579 17.9358C10.14 17.8166 8.89922 17.262 7.93143 16.3595C6.96363 15.4569 6.3239 14.2578 6.11317 12.9514C5.90244 11.6449 6.13271 10.3055 6.76765 9.14442C7.40258 7.98336 8.40604 7.06675 9.61969 6.53923C10.8333 6.01171 12.1881 5.9033 13.4702 6.23112C14.7523 6.55893 15.8887 7.30431 16.7002 8.34964C17.5117 9.39497 17.952 10.6807 17.9517 12.0041C17.9503 12.4349 17.9033 12.8645 17.8114 13.2854C17.6222 14.0583 17.0812 14.3024 16.6744 14.2637C16.2677 14.2251 15.7877 13.9383 15.7836 13.2264V12.0061C15.7845 11.1274 15.4805 10.2757 14.9235 9.59618C14.3664 8.91665 13.5909 8.45146 12.7291 8.27995C11.8674 8.10845 10.9728 8.24127 10.198 8.65575C9.42329 9.07023 8.81635 9.74069 8.48078 10.5527C8.1452 11.3648 8.10179 12.2681 8.35793 13.1086C8.61408 13.9491 9.15392 14.6747 9.88536 15.1615C10.6168 15.6484 11.4945 15.8664 12.3687 15.7784C13.243 15.6903 14.0596 15.3016 14.6792 14.6786C14.883 14.9974 15.1582 15.2644 15.4829 15.4585C15.8077 15.6526 16.1731 15.7686 16.5504 15.7973C16.6175 15.7973 16.6846 15.7973 16.7538 15.7973C17.3024 15.7961 17.8358 15.6162 18.2731 15.2847C18.737 14.9229 19.0762 14.4252 19.2432 13.861C19.2738 13.7654 19.3287 13.5458 19.3287 13.5458C19.4415 13.0419 19.4947 12.5265 19.4873 12.0102C19.4868 10.0234 18.6983 8.11796 17.2948 6.71177C15.8912 5.30558 13.9873 4.51346 12.0005 4.50916ZM14.2561 12.0041C14.2565 12.4503 14.1246 12.8866 13.877 13.2578C13.6294 13.629 13.2772 13.9184 12.8651 14.0894C12.453 14.2604 11.9994 14.3054 11.5617 14.2186C11.1241 14.1318 10.722 13.9171 10.4063 13.6018C10.0907 13.2864 9.87564 12.8845 9.78844 12.4469C9.70124 12.0093 9.74579 11.5557 9.91645 11.1434C10.0871 10.7311 10.3762 10.3787 10.7472 10.1308C11.1182 9.88285 11.5543 9.75051 12.0005 9.75051C12.5981 9.75158 13.1709 9.98929 13.5936 10.4116C14.0163 10.834 14.2545 11.4065 14.2561 12.0041Z" fill="#FF9E00"/>
</svg>
