<svg width="24" height="24" viewBox="0 0 24 24" fill="none" xmlns="http://www.w3.org/2000/svg">
<path d="M0 11.5191C0 6.09081 0 3.37667 1.68833 1.68833C3.37667 0 6.09084 0 11.5192 0H12.4808C17.9091 0 20.6233 0 22.3117 1.68833C24 3.37667 24 6.09081 24 11.5191V12.4808C24 17.9092 24 20.6233 22.3117 22.3116C20.6233 24 17.9091 24 12.4808 24H11.5192C6.09084 24 3.37667 24 1.68833 22.3116C0 20.6233 0 17.9092 0 12.4808V11.5191Z" fill="#FF7700"/>
<path d="M12 11.9359C13.1754 11.9359 14.2333 11.4657 15.0027 10.6963C15.772 9.92698 16.2422 8.85842 16.2422 7.6937C16.2422 6.51826 15.772 5.46038 15.0027 4.69102C14.2333 3.92164 13.1754 3.45148 12 3.45148C10.8246 3.45148 9.76673 3.92164 8.99737 4.69102C8.22801 5.46038 7.75781 6.51826 7.75781 7.6937C7.75781 8.8691 8.22801 9.92698 8.99737 10.6963C9.76673 11.455 10.8246 11.9359 12 11.9359ZM10.643 6.3259C10.9956 5.9733 11.4764 5.75958 12 5.75958C12.5343 5.75958 13.0152 5.9733 13.3571 6.3259C13.7097 6.67854 13.9234 7.15938 13.9234 7.68298C13.9234 8.20658 13.7097 8.69814 13.3571 9.04006C13.0045 9.3927 12.5236 9.60642 12 9.60642C11.4657 9.60642 10.9849 9.3927 10.643 9.04006C10.2903 8.68746 10.0766 8.20658 10.0766 7.68298C10.0766 7.15938 10.2903 6.67854 10.643 6.3259Z" fill="white"/>
<path d="M17.707 13.6456L16.4568 11.9466C16.382 11.8504 16.2538 11.8397 16.1576 11.9145C14.9822 12.919 13.5396 13.5601 11.9902 13.5601C10.4408 13.5601 8.99822 12.9083 7.82278 11.9145C7.7373 11.8397 7.59838 11.8504 7.52358 11.9466L6.28407 13.6456C6.21995 13.7311 6.24131 13.8486 6.31611 13.9127C7.3633 14.7676 8.58146 15.3339 9.85306 15.6331L7.22438 20.26C7.16026 20.3882 7.25647 20.5485 7.40606 20.5485H9.9813C10.0561 20.5485 10.1309 20.5058 10.1629 20.431L12.0009 16.3277L13.8388 20.431C13.8709 20.5058 13.9457 20.5485 14.0205 20.5485H16.5957C16.7453 20.5485 16.8415 20.3882 16.7667 20.26L14.138 15.6331C15.4096 15.3339 16.6171 14.7676 17.6643 13.9127C17.7498 13.8486 17.7605 13.7311 17.707 13.6456Z" fill="white"/>
</svg>
