<svg width="544" height="267" viewBox="0 0 544 267" fill="none" xmlns="http://www.w3.org/2000/svg">
<path d="M2.42822 219.475C133.81 178.578 241.433 152.039 317.778 135.004C346.914 128.504 328.065 133.608 377.134 123.973C377.134 123.973 448.278 110.002 534.29 114.151C537.037 114.284 541.155 114.727 541.91 116.935C542.551 118.807 540.507 121.169 539.475 122.293C526.532 136.388 449.893 198.249 420.616 259.471C419.86 261.052 418.802 263.329 417.616 266.124" stroke="#FFE0A7" stroke-width="2" stroke-miterlimit="10"/>
<path d="M2.42983 219.476C1.88344 214.816 1.6308 209.081 2.27915 202.593C3.4541 190.838 7.08397 181.618 10.0427 175.641C63.8727 142.912 118.561 111.925 174.107 82.6837C179.905 79.6311 185.715 76.5974 191.533 73.5811C200.569 76.2901 209.603 78.9991 218.639 81.7082C225.743 92.0543 233.285 104.547 240.295 119.222C245.457 130.028 249.506 140.292 252.703 149.674" stroke="#FFE0A7" stroke-width="2" stroke-miterlimit="10"/>
<path d="M392.775 121.37C387.469 109.859 382.164 98.3486 376.858 86.8363C376.733 86.7528 376.514 86.6062 376.239 86.4297C376.239 86.4297 373.132 84.4251 369.659 82.9358C342.899 71.4614 278.173 76.1041 278.173 76.1041C253.36 77.8833 235.558 79.1851 231.934 79.4514C221.856 78.0488 211.778 76.6462 201.698 75.2421C197.808 75.9891 193.919 76.7361 190.029 77.4831V78.6918C201.176 81.9524 212.322 85.2146 223.469 88.4753C228.178 95.9957 232.981 104.416 237.628 113.746C244.007 126.553 248.904 138.696 252.695 149.675C299.387 140.24 346.081 130.805 392.773 121.372L392.775 121.37Z" stroke="#FFE0A7" stroke-width="2" stroke-miterlimit="10"/>
<path d="M10.4891 182.769C10.9351 181.345 11.6093 180.317 12.0872 179.696C70.9504 147.921 129.814 116.145 188.677 84.3706V95.9585C129.138 126.155 69.5989 156.352 10.0599 186.55C9.99755 185.726 9.99298 184.353 10.4891 182.771V182.769Z" stroke="#FFE0A7" stroke-width="2" stroke-miterlimit="10"/>
<path d="M172.281 104.15C173.092 103.781 173.905 103.411 174.716 103.042V92.4028C173.905 92.8063 173.092 93.2097 172.281 93.6147V104.15Z" stroke="#FFE0A7" stroke-width="2" stroke-miterlimit="10"/>
<path d="M159.955 110.325C160.766 109.98 161.579 109.637 162.39 109.292V98.9282C161.583 99.3616 160.775 99.7966 159.968 100.23C159.964 103.595 159.959 106.961 159.955 110.325Z" stroke="#FFE0A7" stroke-width="2" stroke-miterlimit="10"/>
<path d="M89.7872 146.032C88.976 146.443 88.1633 146.854 87.3521 147.267V139.175C88.1633 138.738 88.976 138.302 89.7872 137.867V146.033V146.032Z" stroke="#FFE0A7" stroke-width="2" stroke-miterlimit="10"/>
<path d="M101.815 139.936C101.003 140.347 100.191 140.758 99.3794 141.171V132.715C100.191 132.278 101.003 131.842 101.815 131.407V139.936Z" stroke="#FFE0A7" stroke-width="2" stroke-miterlimit="10"/>
<path d="M113.837 124.945V133.838C113.047 134.239 112.257 134.639 111.467 135.039H111.402V126.253C112.213 125.817 113.026 125.38 113.837 124.945Z" stroke="#FFE0A7" stroke-width="2" stroke-miterlimit="10"/>
<path d="M125.857 118.483V127.738C125.121 128.112 124.383 128.485 123.646 128.861H123.422V119.791C124.234 119.354 125.046 118.918 125.857 118.483Z" stroke="#FFE0A7" stroke-width="2" stroke-miterlimit="10"/>
<path d="M138.038 111.94V121.564C137.303 121.938 136.568 122.31 135.831 122.683H135.603V113.25C136.414 112.813 137.227 112.376 138.038 111.942V111.94Z" stroke="#FFE0A7" stroke-width="2" stroke-miterlimit="10"/>
<path d="M150.058 105.478V115.465C149.374 115.811 148.692 116.158 148.009 116.503H147.623V106.786C148.434 106.35 149.246 105.913 150.058 105.478Z" stroke="#FFE0A7" stroke-width="2" stroke-miterlimit="10"/>
<path d="M54.3311 164.019C53.5199 164.43 52.7072 164.841 51.896 165.254V158.232C52.7072 157.795 53.5199 157.359 54.3311 156.924V164.019Z" stroke="#FFE0A7" stroke-width="2" stroke-miterlimit="10"/>
<path d="M65.8917 158.152C65.0805 158.563 64.2677 158.974 63.4565 159.387V152.017C64.2677 151.58 65.0805 151.143 65.8917 150.708V158.153V158.152Z" stroke="#FFE0A7" stroke-width="2" stroke-miterlimit="10"/>
<path d="M77.7647 152.131C76.9535 152.542 76.1408 152.953 75.3296 153.366V145.636C76.1408 145.2 76.9535 144.763 77.7647 144.328V152.132V152.131Z" stroke="#FFE0A7" stroke-width="2" stroke-miterlimit="10"/>
<path d="M15.5479 183.768C14.8965 184.097 14.2451 184.426 13.5952 184.754V178.903C14.2512 178.545 14.9056 178.189 15.5616 177.831C15.557 179.81 15.5525 181.788 15.5479 183.768Z" stroke="#FFE0A7" stroke-width="2" stroke-miterlimit="10"/>
<path d="M24.0948 179.224C23.4434 179.553 22.792 179.882 22.1421 180.21V174.359C22.7981 174.001 23.4525 173.645 24.1085 173.287C24.1039 175.266 24.0993 177.244 24.0948 179.224Z" stroke="#FFE0A7" stroke-width="2" stroke-miterlimit="10"/>
<path d="M33.6875 174.217C33.0361 174.546 32.3847 174.876 31.7349 175.203V169.352C32.3908 168.994 33.0453 168.638 33.7012 168.28C33.6967 170.26 33.6921 172.237 33.6875 174.217Z" stroke="#FFE0A7" stroke-width="2" stroke-miterlimit="10"/>
<path d="M43.7637 168.968C43.1123 169.298 42.4609 169.627 41.811 169.955V164.103C42.467 163.746 43.1214 163.389 43.7774 163.032C43.7728 165.011 43.7683 166.989 43.7637 168.968Z" stroke="#FFE0A7" stroke-width="2" stroke-miterlimit="10"/>
<path d="M223.66 171.022C226.825 170.258 229.991 169.495 233.158 168.731C233.242 173.523 233.326 178.316 233.411 183.108C230.359 183.723 227.306 184.338 224.255 184.952L223.661 171.022H223.66Z" stroke="#FFE0A7" stroke-width="2" stroke-miterlimit="10"/>
<path d="M209.911 174.341C212.932 173.611 215.954 172.883 218.975 172.153L219.561 185.899C216.534 186.509 213.509 187.119 210.481 187.727L209.911 174.341Z" stroke="#FFE0A7" stroke-width="2" stroke-miterlimit="10"/>
<path d="M196.42 177.594C199.356 176.886 202.291 176.177 205.226 175.47L205.79 188.671C202.849 189.264 199.909 189.855 196.97 190.448L196.422 177.594H196.42Z" stroke="#FFE0A7" stroke-width="2" stroke-miterlimit="10"/>
<path d="M182.935 180.848C185.871 180.141 188.805 179.432 191.741 178.724L192.281 191.393C189.341 191.986 186.401 192.577 183.462 193.169L182.937 180.848H182.935Z" stroke="#FFE0A7" stroke-width="2" stroke-miterlimit="10"/>
<path d="M170.046 183.957C172.781 183.297 175.515 182.638 178.25 181.978L178.767 194.114C176.028 194.666 173.29 195.218 170.55 195.769L170.046 183.957Z" stroke="#FFE0A7" stroke-width="2" stroke-miterlimit="10"/>
<path d="M156.103 187.322C159.19 186.578 162.275 185.833 165.361 185.089L165.857 196.716C162.766 197.339 159.675 197.961 156.584 198.584L156.103 187.322Z" stroke="#FFE0A7" stroke-width="2" stroke-miterlimit="10"/>
<path d="M142.767 190.539C145.653 189.843 148.537 189.148 151.422 188.451L151.894 199.527C149.004 200.108 146.114 200.692 143.225 201.273L142.767 190.539Z" stroke="#FFE0A7" stroke-width="2" stroke-miterlimit="10"/>
<path d="M130.333 193.539C132.918 192.915 135.501 192.292 138.085 191.668L138.535 202.217C135.948 202.739 133.359 203.259 130.772 203.781L130.333 193.539Z" stroke="#FFE0A7" stroke-width="2" stroke-miterlimit="10"/>
<path d="M118.795 196.318C121.077 195.768 123.358 195.217 125.64 194.667L126.069 204.724C123.783 205.184 121.498 205.645 119.212 206.105L118.795 196.318Z" stroke="#FFE0A7" stroke-width="2" stroke-miterlimit="10"/>
<path d="M224.447 214.328C227.463 213.895 230.48 213.463 233.496 213.03C233.362 217.781 233.227 222.533 233.093 227.284C229.999 227.609 226.906 227.933 223.812 228.257L224.445 214.328H224.447Z" stroke="#FFE0A7" stroke-width="2" stroke-miterlimit="10"/>
<path d="M210.459 216.335C213.532 215.894 216.606 215.452 219.679 215.013L219.053 228.757C215.985 229.078 212.918 229.399 209.85 229.721L210.459 216.335Z" stroke="#FFE0A7" stroke-width="2" stroke-miterlimit="10"/>
<path d="M196.742 218.303C199.726 217.875 202.712 217.446 205.697 217.019L205.096 230.219C202.116 230.531 199.136 230.843 196.156 231.157L196.74 218.305L196.742 218.303Z" stroke="#FFE0A7" stroke-width="2" stroke-miterlimit="10"/>
<path d="M183.026 220.271C186.011 219.843 188.997 219.414 191.981 218.987L191.404 231.654C188.424 231.966 185.444 232.278 182.464 232.592L183.024 220.273L183.026 220.271Z" stroke="#FFE0A7" stroke-width="2" stroke-miterlimit="10"/>
<path d="M169.917 222.152C172.697 221.754 175.479 221.355 178.26 220.955L177.708 233.089C174.932 233.381 172.155 233.671 169.379 233.962L169.917 222.152Z" stroke="#FFE0A7" stroke-width="2" stroke-miterlimit="10"/>
<path d="M155.735 224.186C158.873 223.735 162.011 223.284 165.149 222.835L164.62 234.461C161.488 234.788 158.354 235.118 155.22 235.446L155.733 224.186H155.735Z" stroke="#FFE0A7" stroke-width="2" stroke-miterlimit="10"/>
<path d="M142.168 226.136C145.102 225.715 148.036 225.294 150.971 224.874L150.467 235.948C147.537 236.255 144.609 236.562 141.679 236.868L142.168 226.136Z" stroke="#FFE0A7" stroke-width="2" stroke-miterlimit="10"/>
<path d="M129.523 227.948C132.151 227.571 134.778 227.193 137.407 226.816L136.927 237.364C134.303 237.638 131.681 237.914 129.057 238.188L129.523 227.948Z" stroke="#FFE0A7" stroke-width="2" stroke-miterlimit="10"/>
<path d="M117.802 229.631C120.123 229.299 122.442 228.965 124.763 228.632L124.305 238.688C121.989 238.931 119.672 239.174 117.356 239.417L117.802 229.631Z" stroke="#FFE0A7" stroke-width="2" stroke-miterlimit="10"/>
<path d="M108.026 198.918C110.318 198.365 112.61 197.811 114.901 197.26L115.311 206.892C113.016 207.354 110.72 207.817 108.425 208.279L108.026 198.918Z" stroke="#FFE0A7" stroke-width="2" stroke-miterlimit="10"/>
<path d="M96.6231 201.671C99.1206 201.069 101.618 200.465 104.116 199.863L104.508 209.07C102.006 209.574 99.5042 210.077 97.0021 210.581L96.6216 201.671H96.6231Z" stroke="#FFE0A7" stroke-width="2" stroke-miterlimit="10"/>
<path d="M86.1309 204.118C88.4382 203.561 90.744 203.005 93.0513 202.449L93.4241 211.206C91.1138 211.671 88.8035 212.138 86.4916 212.603L86.1294 204.119L86.1309 204.118Z" stroke="#FFE0A7" stroke-width="2" stroke-miterlimit="10"/>
<path d="M75.8491 206.477C78.1016 205.933 80.3526 205.391 82.6051 204.847L82.9612 213.185C80.7057 213.639 78.4501 214.093 76.1946 214.549L75.8506 206.477H75.8491Z" stroke="#FFE0A7" stroke-width="2" stroke-miterlimit="10"/>
<path d="M66.3481 208.685C68.3206 208.209 70.2946 207.733 72.267 207.257L72.6049 215.174C70.6279 215.573 68.6524 215.97 66.6754 216.369L66.3481 208.685Z" stroke="#FFE0A7" stroke-width="2" stroke-miterlimit="10"/>
<path d="M57.8028 210.784C59.5104 210.373 61.2181 209.96 62.9257 209.548L63.2468 217.091C61.5362 217.436 59.8255 217.78 58.1148 218.125L57.8013 210.784H57.8028Z" stroke="#FFE0A7" stroke-width="2" stroke-miterlimit="10"/>
<path d="M49.4087 212.842C51.127 212.428 52.8453 212.013 54.5636 211.599L54.871 218.805C53.1497 219.152 51.4283 219.499 49.707 219.846L49.4087 212.842Z" stroke="#FFE0A7" stroke-width="2" stroke-miterlimit="10"/>
<path d="M41.7319 214.586C43.3589 214.194 44.9874 213.802 46.6144 213.409L46.9096 220.32C45.2796 220.647 43.6496 220.977 42.0196 221.305L41.7335 214.588L41.7319 214.586Z" stroke="#FFE0A7" stroke-width="2" stroke-miterlimit="10"/>
<path d="M35.0483 216.245C36.342 215.933 37.6357 215.621 38.9293 215.309L39.2124 221.934C37.9172 222.195 36.6205 222.456 35.3253 222.717L35.0499 216.246L35.0483 216.245Z" stroke="#FFE0A7" stroke-width="2" stroke-miterlimit="10"/>
<path d="M28.8887 217.78C30.1839 217.468 31.4791 217.154 32.7743 216.842L33.0467 223.242C31.7485 223.504 30.4518 223.765 29.1535 224.025L28.8872 217.78H28.8887Z" stroke="#FFE0A7" stroke-width="2" stroke-miterlimit="10"/>
<path d="M23.3013 219.054C24.4503 218.776 25.5979 218.499 26.747 218.223L27.0103 224.396C25.8597 224.628 24.7091 224.859 23.5585 225.091L23.3013 219.054Z" stroke="#FFE0A7" stroke-width="2" stroke-miterlimit="10"/>
<path d="M17.813 220.304C18.9271 220.035 20.0411 219.767 21.1552 219.498L21.4094 225.463C20.2938 225.688 19.1782 225.912 18.0626 226.137L17.8145 220.304H17.813Z" stroke="#FFE0A7" stroke-width="2" stroke-miterlimit="10"/>
<path d="M15.8332 220.683L16.0797 226.479C15.057 226.686 14.0357 226.891 13.013 227.097L12.771 221.422C13.7922 221.176 14.8119 220.931 15.8332 220.683Z" stroke="#FFE0A7" stroke-width="2" stroke-miterlimit="10"/>
<path d="M11.0331 227.413C10.0666 227.607 9.1017 227.802 8.13525 227.996C8.21135 226.105 8.28745 224.214 8.36355 222.322C9.17171 222.127 9.98139 221.932 10.7895 221.738L11.0315 227.413H11.0331Z" stroke="#FFE0A7" stroke-width="2" stroke-miterlimit="10"/>
<path d="M10.0387 175.64C8.54716 176.011 7.427 175.818 6.73908 175.61C3.59015 174.66 1.31634 170.908 1.03174 166.191C39.9223 138.878 73.6489 117.853 98.9194 102.855C163.907 64.2824 194.431 52.8206 221.285 45.806C227.328 44.2269 253.701 37.5434 288.251 38.5567C303.81 39.0121 348.98 40.3375 354.734 59.5829C355.053 60.6483 355.19 61.5623 355.255 62.1596C330.564 58.858 303.195 56.5209 273.518 56.0134C252.823 55.6588 233.29 56.2356 215.069 57.4318C212.474 58.7051 209.879 59.9769 207.284 61.2503C207.596 62.5 207.908 63.7482 208.22 64.9979C162.578 88.2998 117.548 112.736 73.1299 138.308C51.961 150.494 30.9321 162.938 10.0417 175.64H10.0387Z" stroke="#FFE0A7" stroke-width="2" stroke-miterlimit="10"/>
<path d="M168.317 70.077C179.237 64.6447 194.948 57.7641 214.584 52.2688C246.252 43.4057 270.166 43.1677 286.725 43.1283C330.53 43.0227 343.587 52.5241 350.034 60.8451C350.262 61.1398 350.446 61.3856 350.568 61.5511C325.871 58.4165 298.586 56.2717 269.07 55.9533C250.054 55.7469 232.014 56.3205 215.064 57.4332C212.469 58.7065 209.874 59.9783 207.279 61.2517C207.591 62.5014 207.903 63.7495 208.215 64.9993C195.423 70.1022 182.631 75.2051 169.837 80.3096C169.331 76.8992 168.824 73.4889 168.317 70.0785V70.077Z" stroke="#FFE0A7" stroke-width="2" stroke-miterlimit="10"/>
<path d="M341.996 47.1917C342.128 45.225 342.259 43.2566 342.392 41.2898C332.363 37.1924 319.118 32.8822 303.198 30.4867C288.463 28.2678 275.524 28.304 265.298 29.0684C265.746 32.4094 266.195 35.7504 266.642 39.093C282.148 38.4547 295.217 38.8077 305.294 39.4034C316.433 40.0622 325.408 41.1054 335.908 44.8058C338.469 45.7088 340.561 46.5708 341.996 47.1933V47.1917Z" stroke="#FFE0A7" stroke-width="2" stroke-miterlimit="10"/>
<path d="M278.528 38.4677C270.615 32.9692 262.703 27.4692 254.79 21.9707C237.833 26.4858 219.045 32.5784 199.08 40.8836C170.803 52.648 146.911 66.0451 127.466 78.6842C127.526 81.2215 127.587 83.7588 127.646 86.2976C147.23 73.5072 175.846 58.0456 212.705 48.1771C237.778 41.4636 260.306 39.0413 278.528 38.4661V38.4677Z" stroke="#FFE0A7" stroke-width="2" stroke-miterlimit="10"/>
<path d="M249.017 23.554C246.521 18.3124 244.023 13.0708 241.527 7.82764C239.904 7.61804 238.281 7.40687 236.657 7.19727C233.461 9.19399 230.265 11.1891 227.069 13.1859C229.053 18.2494 231.038 23.3129 233.023 28.3764C238.354 26.7689 243.686 25.1599 249.017 23.5524V23.554Z" stroke="#FFE0A7" stroke-width="2" stroke-miterlimit="10"/>
<path d="M243.399 11.7453C243.874 10.4262 244.35 9.10554 244.825 7.78648C244.437 6.01354 244.05 4.2406 243.662 2.46767C240.568 1.99488 237.473 1.5221 234.378 1.04932C230.371 3.88602 226.362 6.72272 222.355 9.55942C223.014 11.2409 223.675 12.9209 224.334 14.6024C225.633 15.1146 226.932 15.6268 228.231 16.139C227.845 15.154 227.46 14.1691 227.073 13.1841C230.269 11.1874 233.465 9.19222 236.661 7.1955C238.285 7.4051 239.908 7.61628 241.532 7.82588C242.154 9.13234 242.777 10.4388 243.399 11.7453Z" stroke="#FFE0A7" stroke-width="2" stroke-miterlimit="10"/>
<path d="M64.828 113.572C56.9138 113.363 48.9996 113.151 41.0854 112.942C41.1874 114.203 41.2879 115.463 41.3898 116.724H65.1324C65.0304 115.673 64.9299 114.623 64.828 113.572Z" stroke="#FFE0A7" stroke-width="2" stroke-miterlimit="10"/>
<path d="M53.7208 112.626C53.4438 110.492 52.0558 100.153 50.3725 100.176C48.6649 100.2 47.5386 110.88 47.3286 112.941C49.4594 112.836 51.5901 112.732 53.7208 112.626Z" stroke="#FFE0A7" stroke-width="2" stroke-miterlimit="10"/>
<path d="M41.3881 116.725C38.6989 124.08 36.0111 131.433 33.3218 138.788C36.2013 138.663 39.0809 138.537 41.9604 138.413C43.6026 137.341 45.2448 136.268 46.887 135.196C47.8945 129.039 48.9021 122.882 49.9111 116.725H41.3881Z" stroke="#FFE0A7" stroke-width="2" stroke-miterlimit="10"/>
<path d="M65.1309 116.725H56.6079C57.5287 120.206 58.451 123.687 59.3718 127.167C62.2833 125.328 65.1948 123.49 68.1063 121.651C67.114 120.009 66.1217 118.367 65.1309 116.725Z" stroke="#FFE0A7" stroke-width="2" stroke-miterlimit="10"/>
<path d="M41.9659 138.414C36.1444 138.592 30.3214 138.768 24.4999 138.946C21.3038 141.101 18.1077 143.253 14.9116 145.408C15.4184 147.247 15.9268 149.084 16.4336 150.923C19.3755 148.875 22.319 146.826 25.2609 144.777C27.9578 144.552 30.6563 144.327 33.3532 144.101C36.2236 142.205 39.0955 140.309 41.9659 138.414Z" stroke="#FFE0A7" stroke-width="2" stroke-miterlimit="10"/>
<path d="M17.9204 149.886C20.3662 148.182 22.812 146.48 25.2593 144.777C27.9562 144.551 30.6546 144.326 33.3515 144.101C29.1022 146.958 24.8514 149.817 20.6021 152.674C19.7087 151.744 18.8153 150.816 17.9204 149.886Z" stroke="#FFE0A7" stroke-width="2" stroke-miterlimit="10"/>
<path d="M142.442 83.2524C142.518 86.4043 142.594 89.5562 142.67 92.7081C114.135 109.412 85.5997 126.117 57.0645 142.82C56.9123 140.22 56.7601 137.619 56.6079 135.019C85.2192 117.764 113.83 100.507 142.442 83.2524Z" stroke="#FFE0A7" stroke-width="2" stroke-miterlimit="10"/>
<path d="M31.9508 149.204C26.4717 152.986 20.9927 156.769 15.5151 160.551C15.8195 162.994 16.1239 165.436 16.4283 167.879C21.7552 164.57 27.082 161.26 32.4073 157.951C32.2551 155.035 32.1029 152.12 31.9508 149.204Z" stroke="#FFE0A7" stroke-width="2" stroke-miterlimit="10"/>
<path d="M379.295 73.249C383.498 73.8211 387.7 74.3932 391.902 74.9652C391.562 76.1503 391.223 77.3339 390.884 78.519C386.864 77.9658 382.846 77.4127 378.827 76.8595C378.983 75.6555 379.14 74.453 379.295 73.249Z" stroke="#FFE0A7" stroke-width="2" stroke-miterlimit="10"/>
<path d="M389.684 78.2731C388.215 83.0372 386.745 87.8013 385.276 92.5653C383.037 92.1115 380.797 91.6576 378.558 91.2037C378.643 86.4223 378.73 81.6393 378.815 76.8579C382.438 77.3291 386.061 77.8019 389.684 78.2731Z" stroke="#FFE0A7" stroke-width="2" stroke-miterlimit="10"/>
<path d="M387.02 92.7702C384.2 92.247 381.378 91.7254 378.558 91.2021C379.045 92.8537 379.532 94.5053 380.019 96.1585C381.83 96.4674 383.64 96.7747 385.451 97.0836C385.975 95.6463 386.498 94.2075 387.02 92.7702Z" stroke="#FFE0A7" stroke-width="2" stroke-miterlimit="10"/>
<path d="M191.348 60.7319C194.798 60.1709 198.249 59.6099 201.7 59.0488C211.424 60.0984 221.148 61.148 230.872 62.1976C244.539 61.1795 258.206 60.1599 271.875 59.1418C271.875 59.1418 345.72 53.7347 372.246 67.3194C375.433 68.9521 378.082 71.1332 378.082 71.1332C378.212 71.2403 378.317 71.3286 378.381 71.3822C378.281 75.664 378.182 79.9474 378.082 84.2293C378.082 84.2293 375.433 82.0481 372.246 80.4155C345.72 66.8308 271.875 72.2379 271.875 72.2379C258.208 73.256 244.541 74.2756 230.872 75.2936C221.148 73.9399 211.424 72.5862 201.7 71.234C198.25 71.9968 194.8 72.7595 191.348 73.5207V60.7303V60.7319Z" stroke="#FFE0A7" stroke-width="2" stroke-miterlimit="10"/>
<path d="M201.705 54.7587L231.333 58.2542C245 57.2361 258.667 56.2165 272.336 55.1984C272.336 55.1984 346.181 49.7914 372.707 63.376C375.894 65.0087 378.542 67.1898 378.542 67.1898C378.673 67.297 378.778 67.3852 378.842 67.4388C378.822 68.7437 378.803 70.0486 378.781 71.3534C378.717 71.2999 378.628 71.2242 378.518 71.1344C378.518 71.1344 375.87 68.9533 372.683 67.3206C346.157 53.736 272.311 59.143 272.311 59.143C258.644 60.1611 244.977 61.1807 231.308 62.1988C221.585 61.1492 211.861 60.0996 202.137 59.05C198.687 59.6111 195.236 60.1721 191.785 60.7332C191.337 60.7836 190.89 60.8356 190.441 60.886C190.391 59.6079 190.339 58.3298 190.289 57.0517C194.093 56.2874 197.898 55.5231 201.703 54.7587H201.705Z" stroke="#FFE0A7" stroke-width="2" stroke-miterlimit="10"/>
<path d="M201.952 71.2351C211.676 72.5888 221.4 73.9426 231.123 75.2947C244.791 74.2767 258.458 73.257 272.127 72.239C272.127 72.239 345.972 66.8319 372.498 80.4165C375.685 82.0492 378.333 84.2303 378.333 84.2303C378.385 84.4667 378.435 84.7031 378.487 84.9411C378.47 85.904 378.452 86.8669 378.435 87.8298C377.438 87.0749 375.504 85.6959 373.314 84.5739C346.788 70.9892 272.942 76.3963 272.942 76.3963C259.275 77.4144 245.608 78.434 231.939 79.4521C221.861 78.0495 211.782 76.6469 201.703 75.2427C197.812 75.9897 193.924 76.7367 190.034 77.4837C190.05 76.275 190.067 75.0678 190.084 73.859C194.039 72.9844 197.995 72.1097 201.951 71.2335L201.952 71.2351Z" stroke="#FFE0A7" stroke-width="2" stroke-miterlimit="10"/>
<path d="M241.053 87.6841C253.648 86.7448 266.245 85.8071 278.841 84.8679C278.841 84.8679 352.687 79.4608 379.213 93.0454C379.505 93.1952 379.793 93.3496 380.073 93.5056L385.223 105.135C385.218 105.398 385.215 105.659 385.211 105.922C385.162 105.882 385.107 105.837 385.046 105.787C385.046 105.787 382.398 103.606 379.211 101.973C352.685 88.3885 278.84 93.7956 278.84 93.7956C269.909 94.4417 260.978 95.0863 252.047 95.7324C247.273 96.2856 243.115 94.4953 241.629 91.2898C241.305 90.5901 240.911 89.3956 241.049 87.6857L241.053 87.6841Z" stroke="#FFE0A7" stroke-width="2" stroke-miterlimit="10"/>
<path d="M377.127 124.131C373.707 124.803 370.619 125.403 367.819 125.941C335.92 121.818 294.772 124.829 294.772 124.829C285.841 125.476 276.911 126.12 267.98 126.766C263.205 127.319 259.047 125.529 257.562 122.324C257.238 121.624 256.844 120.429 256.982 118.72C269.578 117.78 282.175 116.843 294.771 115.903C294.771 115.903 360.396 111.098 390.138 121.93C381.776 123.22 377.124 124.133 377.124 124.133L377.127 124.131Z" stroke="#FFE0A7" stroke-width="2" stroke-miterlimit="10"/>
<path d="M247.907 103.084C260.503 102.145 273.1 101.207 285.696 100.268C285.696 100.268 359.541 94.8607 386.067 108.445C386.359 108.595 386.647 108.75 386.927 108.906L392.077 120.534H391.062C390.033 119.764 388.168 118.449 386.066 117.373C359.54 103.788 285.694 109.195 285.694 109.195C276.763 109.842 267.832 110.486 258.902 111.132C254.127 111.685 249.969 109.895 248.484 106.69C248.16 105.99 247.765 104.795 247.904 103.086L247.907 103.084Z" stroke="#FFE0A7" stroke-width="2" stroke-miterlimit="10"/>
<path d="M211.954 101.293C144.008 132.139 76.0629 162.985 8.1167 193.831C8.43783 192.589 8.77875 191.41 9.13032 190.299C76.7387 156.947 144.347 123.597 211.954 90.2456V101.293Z" stroke="#FFE0A7" stroke-width="2" stroke-miterlimit="10"/>
<path d="M219.358 116.86C148.449 144.944 77.5394 173.027 6.62842 201.11C6.69538 200.663 6.76692 200.212 6.84301 199.756C7.01652 198.734 7.20828 197.742 7.41527 196.783C78.063 166.299 148.711 135.814 219.357 105.331L219.358 116.86Z" stroke="#FFE0A7" stroke-width="2" stroke-miterlimit="10"/>
<path d="M227.275 133.569C153.491 158.471 79.7078 183.372 5.92334 208.275C5.97965 207.123 6.06488 205.93 6.18512 204.701C79.8813 176.987 153.577 149.274 227.274 121.559L227.275 133.569Z" stroke="#FFE0A7" stroke-width="2" stroke-miterlimit="10"/>
<path d="M235.593 150.049V137.804C159.008 162.378 82.4213 186.95 5.83643 211.524" stroke="#FFE0A7" stroke-width="2" stroke-miterlimit="10"/>
<path d="M203.626 71.5437C202.985 71.4538 202.344 71.3656 201.704 71.2758V59.4136C201.975 59.3348 202.247 59.256 202.518 59.1772C202.888 59.2166 203.258 59.2576 203.626 59.297V71.5437Z" stroke="#FFE0A7" stroke-width="2" stroke-miterlimit="10"/>
<path d="M217.942 73.535C217.302 73.4451 216.661 73.3569 216.02 73.267V60.6343C216.661 60.7036 217.302 60.773 217.942 60.8423V73.535Z" stroke="#FFE0A7" stroke-width="2" stroke-miterlimit="10"/>
<path d="M232.253 75.2344C231.793 75.2691 231.334 75.3022 230.875 75.3368C230.694 75.3116 230.512 75.2864 230.331 75.2612V62.1808C230.512 62.1998 230.694 62.2202 230.875 62.2392C231.335 62.2045 231.795 62.1714 232.253 62.1367V75.2344Z" stroke="#FFE0A7" stroke-width="2" stroke-miterlimit="10"/>
<path d="M245.949 74.2134C245.308 74.2607 244.668 74.3095 244.027 74.3568V61.2591C244.668 61.2119 245.308 61.163 245.949 61.1157V74.2134Z" stroke="#FFE0A7" stroke-width="2" stroke-miterlimit="10"/>
<path d="M259.647 73.1939C259.007 73.2411 258.366 73.29 257.725 73.3373V60.2396C258.366 60.1923 259.007 60.1435 259.647 60.0962V73.1939Z" stroke="#FFE0A7" stroke-width="2" stroke-miterlimit="10"/>
<path d="M273.341 72.1817C272.388 72.2431 271.875 72.2794 271.875 72.2794C271.723 72.2904 271.571 72.3014 271.418 72.314V59.2164C271.571 59.2053 271.723 59.1943 271.875 59.1817C271.875 59.1817 272.389 59.1439 273.341 59.084V72.1817Z" stroke="#FFE0A7" stroke-width="2" stroke-miterlimit="10"/>
<path d="M287.04 71.5288C286.382 71.5509 285.74 71.5745 285.118 71.5982V58.5005C285.742 58.4769 286.382 58.4532 287.04 58.4312V71.5288Z" stroke="#FFE0A7" stroke-width="2" stroke-miterlimit="10"/>
<path d="M300.729 71.2373C300.083 71.242 299.44 71.2499 298.807 71.2562V58.1586C299.442 58.1507 300.083 58.1444 300.729 58.1396V71.2373Z" stroke="#FFE0A7" stroke-width="2" stroke-miterlimit="10"/>
<path d="M314.433 58.2213V70.6555H312.511V58.1851C313.149 58.1961 313.791 58.2087 314.433 58.2213Z" stroke="#FFE0A7" stroke-width="2" stroke-miterlimit="10"/>
<path d="M327.671 71.8327C327.03 71.7948 326.389 71.7602 325.749 71.7271V58.6294C326.389 58.6625 327.03 58.6972 327.671 58.735V71.8327Z" stroke="#FFE0A7" stroke-width="2" stroke-miterlimit="10"/>
<path d="M340.915 72.9151C340.277 72.8458 339.635 72.778 338.993 72.7134V59.6157C339.636 59.6803 340.277 59.7465 340.915 59.8174V72.9151Z" stroke="#FFE0A7" stroke-width="2" stroke-miterlimit="10"/>
<path d="M354.151 74.7993C353.517 74.678 352.876 74.5598 352.229 74.4463V61.3486C352.876 61.4621 353.517 61.5803 354.151 61.7016V74.7993Z" stroke="#FFE0A7" stroke-width="2" stroke-miterlimit="10"/>
<path d="M367.393 78.3611C366.768 78.131 366.127 77.9088 365.471 77.6929V64.5952C366.127 64.8111 366.769 65.0333 367.393 65.2634V78.3611Z" stroke="#FFE0A7" stroke-width="2" stroke-miterlimit="10"/>
<path d="M224.065 192.527C227.256 191.892 230.45 191.256 233.643 190.621C233.547 195.413 233.451 200.205 233.355 204.998C230.282 205.49 227.209 205.98 224.136 206.471L224.066 192.527H224.065Z" stroke="#FFE0A7" stroke-width="2" stroke-miterlimit="10"/>
<path d="M210.197 195.289C213.244 194.683 216.291 194.076 219.338 193.469L219.408 207.227C216.361 207.714 213.312 208.201 210.265 208.688L210.197 195.289Z" stroke="#FFE0A7" stroke-width="2" stroke-miterlimit="10"/>
<path d="M196.592 197.999C199.552 197.409 202.511 196.82 205.471 196.23L205.538 209.445C202.578 209.918 199.618 210.392 196.658 210.865L196.592 197.999Z" stroke="#FFE0A7" stroke-width="2" stroke-miterlimit="10"/>
<path d="M182.993 200.703C185.953 200.114 188.912 199.524 191.872 198.935L191.936 211.617C188.975 212.089 186.015 212.564 183.055 213.037L182.993 200.703Z" stroke="#FFE0A7" stroke-width="2" stroke-miterlimit="10"/>
<path d="M170 203.291C172.756 202.743 175.514 202.193 178.271 201.645L178.332 213.792C175.574 214.233 172.817 214.674 170.059 215.114L170 203.291Z" stroke="#FFE0A7" stroke-width="2" stroke-miterlimit="10"/>
<path d="M155.942 206.092C159.053 205.472 162.165 204.853 165.276 204.232L165.335 215.87C162.223 216.368 159.111 216.865 156 217.363L155.943 206.092H155.942Z" stroke="#FFE0A7" stroke-width="2" stroke-miterlimit="10"/>
<path d="M142.492 208.772C145.4 208.192 148.31 207.614 151.219 207.034L151.275 218.12C148.365 218.585 145.456 219.05 142.546 219.517L142.492 208.772Z" stroke="#FFE0A7" stroke-width="2" stroke-miterlimit="10"/>
<path d="M129.958 211.267C132.563 210.749 135.167 210.23 137.773 209.71L137.826 220.269C135.22 220.685 132.615 221.102 130.009 221.519L129.958 211.265V211.267Z" stroke="#FFE0A7" stroke-width="2" stroke-miterlimit="10"/>
<path d="M118.333 213.582C120.634 213.123 122.934 212.666 125.235 212.208L125.285 222.275C122.984 222.642 120.683 223.011 118.382 223.378L118.332 213.582H118.333Z" stroke="#FFE0A7" stroke-width="2" stroke-miterlimit="10"/>
<path d="M107.466 215.747C109.777 215.287 112.088 214.827 114.399 214.367L114.448 224.008C112.136 224.377 109.825 224.747 107.513 225.116L107.466 215.746V215.747Z" stroke="#FFE0A7" stroke-width="2" stroke-miterlimit="10"/>
<path d="M95.9653 218.036C98.4842 217.535 101.001 217.034 103.52 216.531L103.568 225.747C101.049 226.151 98.5298 226.553 96.011 226.956L95.9653 218.038V218.036Z" stroke="#FFE0A7" stroke-width="2" stroke-miterlimit="10"/>
<path d="M85.3862 220.056C87.7118 219.593 90.0373 219.13 92.3644 218.667L92.4085 227.432C90.0815 227.804 87.7559 228.176 85.4288 228.548L85.3862 220.056Z" stroke="#FFE0A7" stroke-width="2" stroke-miterlimit="10"/>
<path d="M75.0317 222.002C77.3025 221.55 79.5733 221.097 81.844 220.645L81.8866 228.991C79.6159 229.354 77.3451 229.718 75.0744 230.08L75.0317 222.002Z" stroke="#FFE0A7" stroke-width="2" stroke-miterlimit="10"/>
<path d="M65.459 223.825C67.4482 223.429 69.4374 223.032 71.4266 222.637L71.4662 230.562C69.477 230.88 67.4863 231.199 65.4971 231.517L65.4575 223.825H65.459Z" stroke="#FFE0A7" stroke-width="2" stroke-miterlimit="10"/>
<path d="M56.8364 225.579C58.5578 225.236 60.2806 224.894 62.0019 224.55L62.04 232.101C60.3171 232.376 58.5958 232.651 56.873 232.926L56.8364 225.579Z" stroke="#FFE0A7" stroke-width="2" stroke-miterlimit="10"/>
<path d="M48.3813 227.3C50.1149 226.954 51.8468 226.609 53.5803 226.264L53.6169 233.477C51.8834 233.755 50.1499 234.032 48.4179 234.308L48.3813 227.3Z" stroke="#FFE0A7" stroke-width="2" stroke-miterlimit="10"/>
<path d="M40.6372 228.73C42.2779 228.404 43.9185 228.076 45.5607 227.75L45.5957 234.667C43.9551 234.93 42.3129 235.192 40.6722 235.455L40.6372 228.73Z" stroke="#FFE0A7" stroke-width="2" stroke-miterlimit="10"/>
<path d="M33.897 230.122C35.2013 229.862 36.5056 229.602 37.8099 229.343L37.8434 235.975C36.5391 236.183 35.2348 236.392 33.9305 236.6L33.8985 230.123L33.897 230.122Z" stroke="#FFE0A7" stroke-width="2" stroke-miterlimit="10"/>
<path d="M27.6778 231.406C28.9836 231.146 30.2895 230.886 31.5953 230.626L31.6273 237.032C30.3214 237.242 29.0141 237.45 27.7082 237.659L27.6763 231.408L27.6778 231.406Z" stroke="#FFE0A7" stroke-width="2" stroke-miterlimit="10"/>
<path d="M22.0469 232.454C23.2051 232.223 24.3634 231.992 25.52 231.762L25.5505 237.941C24.3923 238.127 23.2341 238.311 22.0759 238.496L22.0454 232.454H22.0469Z" stroke="#FFE0A7" stroke-width="2" stroke-miterlimit="10"/>
<path d="M16.519 233.481C17.6422 233.258 18.7655 233.034 19.8887 232.81L19.9191 238.78C18.7959 238.959 17.6727 239.139 16.5495 239.319L16.519 233.481Z" stroke="#FFE0A7" stroke-width="2" stroke-miterlimit="10"/>
<path d="M14.5202 233.782L14.5491 239.583C13.5203 239.747 12.4914 239.912 11.461 240.076L11.4321 234.395C12.461 234.19 13.4913 233.987 14.5202 233.782Z" stroke="#FFE0A7" stroke-width="2" stroke-miterlimit="10"/>
<path d="M9.48003 240.313C8.5075 240.469 7.53497 240.623 6.56396 240.779C6.71159 238.893 6.8577 237.006 7.00533 235.12C7.8211 234.957 8.63687 234.795 9.45264 234.633L9.48003 240.313Z" stroke="#FFE0A7" stroke-width="2" stroke-miterlimit="10"/>
</svg>
