<svg width="95" height="28" viewBox="0 0 95 28" fill="none" xmlns="http://www.w3.org/2000/svg">
<path d="M1.65071 25.0287C0.910125 26.3618 1.87406 28 3.39903 28H93C94.1046 28 95 27.1046 95 26V2C95 0.895432 94.1046 0 93 0H3.39903C1.87406 0 0.910124 1.63822 1.65071 2.97129L7.23817 13.0287C7.57376 13.6328 7.57376 14.3672 7.23817 14.9713L1.65071 25.0287Z" fill="url(#paint0_linear_42_6132)"/>
<path d="M80.1282 17.4902V15.9222L80.0582 15.6282V12.9542C80.0582 12.3849 79.8902 11.9462 79.5542 11.6382C79.2276 11.3209 78.7329 11.1622 78.0702 11.1622C77.6316 11.1622 77.2022 11.2369 76.7822 11.3862C76.3622 11.5262 76.0076 11.7176 75.7182 11.9602L75.1582 10.9522C75.5409 10.6442 75.9982 10.4109 76.5302 10.2522C77.0716 10.0842 77.6362 10.0002 78.2242 10.0002C79.2416 10.0002 80.0256 10.2476 80.5762 10.7422C81.1269 11.2369 81.4022 11.9929 81.4022 13.0102V17.4902H80.1282ZM77.6922 17.5742C77.1416 17.5742 76.6562 17.4809 76.2362 17.2942C75.8256 17.1076 75.5082 16.8509 75.2842 16.5242C75.0602 16.1882 74.9482 15.8102 74.9482 15.3902C74.9482 14.9889 75.0416 14.6249 75.2282 14.2982C75.4242 13.9716 75.7369 13.7102 76.1662 13.5142C76.6049 13.3182 77.1929 13.2202 77.9302 13.2202H80.2822V14.1862H77.9862C77.3142 14.1862 76.8616 14.2982 76.6282 14.5222C76.3949 14.7462 76.2782 15.0169 76.2782 15.3342C76.2782 15.6982 76.4229 15.9922 76.7122 16.2162C77.0016 16.4309 77.4029 16.5382 77.9162 16.5382C78.4202 16.5382 78.8589 16.4262 79.2322 16.2022C79.6149 15.9782 79.8902 15.6516 80.0582 15.2222L80.3242 16.1462C80.1469 16.5849 79.8342 16.9349 79.3862 17.1962C78.9382 17.4482 78.3736 17.5742 77.6922 17.5742Z" fill="#020202"/>
<path d="M72.7237 17.4902L69.8537 13.8782L70.9597 13.2062L74.3057 17.4902H72.7237ZM67.3477 17.4902V10.0702H68.6917V17.4902H67.3477ZM68.2857 14.3542V13.2062H70.7357V14.3542H68.2857ZM71.0717 13.9342L69.8257 13.7662L72.6677 10.0702H74.1097L71.0717 13.9342Z" fill="#020202"/>
<path d="M57.8184 17.4902V10.0702H59.1624V13.2202H63.3904V10.0702H64.7344V17.4902H63.3904V14.3822H59.1624V17.4902H57.8184Z" fill="#020202"/>
<path d="M48.0977 17.4902V10.0702H49.4417V15.4742L53.9917 10.0702H55.2097V17.4902H53.8657V12.0862L49.3297 17.4902H48.0977Z" fill="#020202"/>
<path d="M39.498 17.4902V10.0702H42.942C43.81 10.0702 44.4914 10.2382 44.986 10.5742C45.49 10.9009 45.742 11.3675 45.742 11.9742C45.742 12.5809 45.504 13.0522 45.028 13.3882C44.5614 13.7149 43.9407 13.8782 43.166 13.8782L43.376 13.5142C44.2627 13.5142 44.9207 13.6775 45.35 14.0042C45.7794 14.3309 45.994 14.8115 45.994 15.4462C45.994 16.0902 45.7514 16.5942 45.266 16.9582C44.79 17.3129 44.0574 17.4902 43.068 17.4902H39.498ZM40.814 16.4542H42.97C43.53 16.4542 43.95 16.3702 44.23 16.2022C44.51 16.0249 44.65 15.7449 44.65 15.3622C44.65 14.9702 44.5194 14.6855 44.258 14.5082C44.006 14.3215 43.6047 14.2282 43.054 14.2282H40.814V16.4542ZM40.814 13.2622H42.83C43.3434 13.2622 43.7307 13.1689 43.992 12.9822C44.2627 12.7862 44.398 12.5155 44.398 12.1702C44.398 11.8155 44.2627 11.5495 43.992 11.3722C43.7307 11.1949 43.3434 11.1062 42.83 11.1062H40.814V13.2622Z" fill="#020202"/>
<path d="M33.7078 17.5742C32.9611 17.5742 32.2984 17.4109 31.7197 17.0842C31.1411 16.7576 30.6837 16.3096 30.3477 15.7402C30.0117 15.1616 29.8438 14.5082 29.8438 13.7802C29.8438 13.0429 30.0117 12.3896 30.3477 11.8202C30.6837 11.2509 31.1411 10.8076 31.7197 10.4902C32.2984 10.1636 32.9611 10.0002 33.7078 10.0002C34.4451 10.0002 35.1031 10.1636 35.6818 10.4902C36.2698 10.8076 36.7271 11.2509 37.0538 11.8202C37.3898 12.3802 37.5577 13.0336 37.5577 13.7802C37.5577 14.5176 37.3898 15.1709 37.0538 15.7402C36.7271 16.3096 36.2698 16.7576 35.6818 17.0842C35.1031 17.4109 34.4451 17.5742 33.7078 17.5742ZM33.7078 16.3982C34.1838 16.3982 34.6084 16.2909 34.9817 16.0762C35.3644 15.8616 35.6631 15.5582 35.8777 15.1662C36.0924 14.7649 36.1997 14.3029 36.1997 13.7802C36.1997 13.2482 36.0924 12.7909 35.8777 12.4082C35.6631 12.0162 35.3644 11.7129 34.9817 11.4982C34.6084 11.2836 34.1838 11.1762 33.7078 11.1762C33.2318 11.1762 32.8071 11.2836 32.4338 11.4982C32.0604 11.7129 31.7618 12.0162 31.5378 12.4082C31.3138 12.7909 31.2017 13.2482 31.2017 13.7802C31.2017 14.3029 31.3138 14.7649 31.5378 15.1662C31.7618 15.5582 32.0604 15.8616 32.4338 16.0762C32.8071 16.2909 33.2318 16.3982 33.7078 16.3982Z" fill="#020202"/>
<path d="M21 17.4902V10.0702H22.344V13.2202H26.572V10.0702H27.916V17.4902H26.572V14.3822H22.344V17.4902H21Z" fill="#020202"/>
<defs>
<linearGradient id="paint0_linear_42_6132" x1="-5.21605e-09" y1="12.3681" x2="94.9898" y2="13.4437" gradientUnits="userSpaceOnUse">
<stop stop-color="#C08D4E"/>
<stop offset="0.490385" stop-color="#FCD5A3"/>
<stop offset="1" stop-color="#BE894B"/>
</linearGradient>
</defs>
</svg>
