<svg xmlns="http://www.w3.org/2000/svg" width="147" height="38" fill="none" viewBox="0 0 147 38"><path fill="#00be64" d="M0 26.07c2.855 6.699 9.498 11.4 17.244 11.4C14.39 30.77 7.747 26.07 0 26.07m17.244 11.4c5.691 0 10.589-3.381 12.797-8.241-5.691 0-10.589 3.381-12.797 8.241"/><path fill="#ffb900" d="M17.244 0c7.76 0 14.053 6.294 14.053 14.053s-6.294 14.052-14.053 14.052S3.191 21.813 3.191 14.054C3.191 6.293 9.485 0 17.244 0m0 7.03a7.023 7.023 0 1 0 0 14.046 7.023 7.023 0 0 0 7.024-7.023 7.023 7.023 0 0 0-7.024-7.024"/><path fill="#fff" d="M97.951 17.49h5.006v19.391h-5.006V29.33h-8.746v7.551H84.2v-19.39h5.005v7.15h8.746zm7.373 4.808h6.238V36.88h5.006V22.298h6.162V17.49h-17.406zM147 32.667v4.127c-.854.42-1.924.637-3.167.637-2.606 0-3.914-1.134-4.433-2.95l-.086.12c-1.514 1.9-3.611 2.83-6.325 2.83-2.605 0-4.81-.972-6.681-2.95-1.827-1.976-2.756-4.417-2.756-7.29s.929-5.273 2.756-7.25c1.86-1.976 4.076-2.98 6.681-2.98 2.595 0 4.627.852 6.119 2.592v-2.042h5.006v13.72c0 1.177.53 1.77 1.6 1.77.508-.02.93-.129 1.286-.334m-7.686-5.488c0-1.588-.508-2.906-1.557-3.921-1.005-1.048-2.292-1.556-3.838-1.556-1.557 0-2.832.508-3.838 1.556-1.005 1.005-1.513 2.322-1.513 3.921 0 1.588.508 2.906 1.513 3.954 1.006 1.005 2.292 1.512 3.838 1.512 1.557 0 2.833-.507 3.838-1.512 1.059-1.037 1.557-2.355 1.557-3.954m-96.357-9.69-.152 7.281c-.032 2.95-.14 4.408-.573 6.082-.389 1.599-1.135 2.053-2.313 2.053-.39 0-.746-.033-1.027-.14v4.126c.389.216 1.027.324 1.88.324 3.525-.108 5.233-1.772 6.087-4.753.606-2.128.714-3.77.822-6.223l.108-3.932h6.216v14.584h5.006V17.49zm24.108 10.997c.54 3.317 3.167 4.397 5.827 4.397 1.762 0 3.61-.691 4.757-1.718l3.091 3.1c-1.848 2.042-4.41 3.155-7.924 3.155-4.908 0-10.843-2.895-10.843-10.24 0-7.347 5.708-10.242 10.551-10.242 6.13 0 8.67 2.874 8.67 6.104.011 5.282-6.702 7.713-14.13 5.444m8.703-4.86c0-1.502-1.492-2.172-3.157-2.172-2.552 0-4.757 1.08-5.427 3.846 5.189 1.49 8.584.367 8.584-1.675"/></svg>