<svg width="392" height="63" viewBox="0 0 392 63" fill="none" xmlns="http://www.w3.org/2000/svg">
<path d="M369.193 61.4332H363.831V51.1508H357.145V50.2046H363.831V42.0039H357.145V41.0576H363.831V17.2756C366.291 17.2125 372.6 17.1494 375.375 17.1494C383.198 17.1494 391.461 20.3035 391.461 29.072C391.461 39.4806 382.314 42.0039 373.672 42.0039H369.193V50.2046H380.107V51.1508H369.193V61.4332ZM369.193 18.348V41.0576H373.483C380.674 41.0576 385.721 37.7143 385.721 29.5136C385.721 22.953 381.936 18.0956 374.051 18.0956C372.284 18.0956 371.401 18.0956 369.193 18.348Z" fill="url(#paint0_linear_42_5807)"/>
<path d="M299.512 31.3188C299.512 13.2502 308.374 0.516113 319.301 0.516113C330.831 0.516113 339.091 13.2502 339.091 31.3188C339.091 49.4735 330.745 62.1215 319.473 62.1215C308.804 62.1215 299.512 49.4735 299.512 31.3188ZM306.825 24.0053C306.825 43.0204 310.611 60.8309 320.42 60.8309C329.282 60.8309 331.777 48.6991 331.777 36.3092C331.777 17.2081 328.336 1.72069 318.183 1.72069C309.32 1.72069 306.825 13.7664 306.825 24.0053Z" fill="url(#paint1_linear_42_5807)"/>
<path d="M253.906 31.3188C253.906 13.2502 262.768 0.516113 273.696 0.516113C285.225 0.516113 293.485 13.2502 293.485 31.3188C293.485 49.4735 285.139 62.1215 273.868 62.1215C263.199 62.1215 253.906 49.4735 253.906 31.3188ZM261.22 24.0053C261.22 43.0204 265.006 60.8309 274.814 60.8309C283.676 60.8309 286.172 48.6991 286.172 36.3092C286.172 17.2081 282.73 1.72069 272.577 1.72069C263.715 1.72069 261.22 13.7664 261.22 24.0053Z" fill="url(#paint2_linear_42_5807)"/>
<path d="M208.301 31.3188C208.301 13.2502 217.163 0.516113 228.09 0.516113C239.62 0.516113 247.88 13.2502 247.88 31.3188C247.88 49.4735 239.534 62.1215 228.262 62.1215C217.593 62.1215 208.301 49.4735 208.301 31.3188ZM215.614 24.0053C215.614 43.0204 219.4 60.8309 229.209 60.8309C238.071 60.8309 240.566 48.6991 240.566 36.3092C240.566 17.2081 237.125 1.72069 226.972 1.72069C218.109 1.72069 215.614 13.7664 215.614 24.0053Z" fill="url(#paint3_linear_42_5807)"/>
<path d="M142.886 31.3188C142.886 13.2502 151.748 0.516113 162.675 0.516113C174.205 0.516113 182.465 13.2502 182.465 31.3188C182.465 49.4735 174.119 62.1215 162.847 62.1215C152.178 62.1215 142.886 49.4735 142.886 31.3188ZM150.199 24.0053C150.199 43.0204 153.985 60.8309 163.794 60.8309C172.656 60.8309 175.151 48.6991 175.151 36.3092C175.151 17.2081 171.71 1.72069 161.557 1.72069C152.694 1.72069 150.199 13.7664 150.199 24.0053Z" fill="url(#paint4_linear_42_5807)"/>
<path d="M97.2803 31.3188C97.2803 13.2502 106.143 0.516113 117.07 0.516113C128.599 0.516113 136.859 13.2502 136.859 31.3188C136.859 49.4735 128.513 62.1215 117.242 62.1215C106.573 62.1215 97.2803 49.4735 97.2803 31.3188ZM104.594 24.0053C104.594 43.0204 108.38 60.8309 118.188 60.8309C127.05 60.8309 129.546 48.6991 129.546 36.3092C129.546 17.2081 126.104 1.72069 115.951 1.72069C107.089 1.72069 104.594 13.7664 104.594 24.0053Z" fill="url(#paint5_linear_42_5807)"/>
<path d="M51.6748 31.3188C51.6748 13.2502 60.537 0.516113 71.4643 0.516113C82.9938 0.516113 91.2537 13.2502 91.2537 31.3188C91.2537 49.4735 82.9077 62.1215 71.6363 62.1215C60.9672 62.1215 51.6748 49.4735 51.6748 31.3188ZM58.9883 24.0053C58.9883 43.0204 62.7741 60.8309 72.5828 60.8309C81.445 60.8309 83.9402 48.6991 83.9402 36.3092C83.9402 17.2081 80.4986 1.72069 70.3457 1.72069C61.4835 1.72069 58.9883 13.7664 58.9883 24.0053Z" fill="url(#paint6_linear_42_5807)"/>
<path d="M18.929 0H19.7894V61.4333H12.9062V10.0668C10.0668 12.2178 4.04393 13.7666 0 13.7666V12.562C9.03431 12.2178 15.6595 8.00182 18.929 0Z" fill="url(#paint7_linear_42_5807)"/>
<defs>
<linearGradient id="paint0_linear_42_5807" x1="195.905" y1="0.999628" x2="195.905" y2="61.4332" gradientUnits="userSpaceOnUse">
<stop stop-color="#E9C37C"/>
<stop offset="0.519231" stop-color="#FFE5C3"/>
<stop offset="1" stop-color="#BF8E4E"/>
</linearGradient>
<linearGradient id="paint1_linear_42_5807" x1="195.906" y1="0.999582" x2="195.906" y2="61.4332" gradientUnits="userSpaceOnUse">
<stop stop-color="#E9C37C"/>
<stop offset="0.519231" stop-color="#FFE5C3"/>
<stop offset="1" stop-color="#BF8E4E"/>
</linearGradient>
<linearGradient id="paint2_linear_42_5807" x1="195.905" y1="0.999582" x2="195.905" y2="61.4332" gradientUnits="userSpaceOnUse">
<stop stop-color="#E9C37C"/>
<stop offset="0.519231" stop-color="#FFE5C3"/>
<stop offset="1" stop-color="#BF8E4E"/>
</linearGradient>
<linearGradient id="paint3_linear_42_5807" x1="195.905" y1="0.999582" x2="195.905" y2="61.4332" gradientUnits="userSpaceOnUse">
<stop stop-color="#E9C37C"/>
<stop offset="0.519231" stop-color="#FFE5C3"/>
<stop offset="1" stop-color="#BF8E4E"/>
</linearGradient>
<linearGradient id="paint4_linear_42_5807" x1="195.905" y1="0.999582" x2="195.905" y2="61.4332" gradientUnits="userSpaceOnUse">
<stop stop-color="#E9C37C"/>
<stop offset="0.519231" stop-color="#FFE5C3"/>
<stop offset="1" stop-color="#BF8E4E"/>
</linearGradient>
<linearGradient id="paint5_linear_42_5807" x1="195.904" y1="0.999582" x2="195.904" y2="61.4332" gradientUnits="userSpaceOnUse">
<stop stop-color="#E9C37C"/>
<stop offset="0.519231" stop-color="#FFE5C3"/>
<stop offset="1" stop-color="#BF8E4E"/>
</linearGradient>
<linearGradient id="paint6_linear_42_5807" x1="195.904" y1="0.999582" x2="195.904" y2="61.4332" gradientUnits="userSpaceOnUse">
<stop stop-color="#E9C37C"/>
<stop offset="0.519231" stop-color="#FFE5C3"/>
<stop offset="1" stop-color="#BF8E4E"/>
</linearGradient>
<linearGradient id="paint7_linear_42_5807" x1="195.904" y1="0.999721" x2="195.904" y2="61.4333" gradientUnits="userSpaceOnUse">
<stop stop-color="#E9C37C"/>
<stop offset="0.519231" stop-color="#FFE5C3"/>
<stop offset="1" stop-color="#BF8E4E"/>
</linearGradient>
</defs>
</svg>
