<svg width="396" height="143" viewBox="0 0 396 143" fill="none" xmlns="http://www.w3.org/2000/svg">
<path d="M39.3404 127.651V68.6002H7.03987V127.651H0V67.2189H46.3803V127.651H39.3404Z" fill="#DAB582"/>
<path d="M59.2565 97.435C59.2565 79.9097 71.597 66.3556 89.6522 66.3556C107.293 66.3556 120.048 79.0463 120.048 97.694C120.048 115.392 106.465 128.514 89.6522 128.514C72.0111 128.514 59.2565 115.824 59.2565 97.435ZM66.7105 97.694C66.7105 113.234 76.5663 127.219 90.6461 127.219C105.554 127.219 112.594 113.147 112.594 97.435C112.594 80.255 102.655 67.6506 88.5755 67.6506C74.3301 67.6506 66.7105 81.032 66.7105 97.694Z" fill="#DAB582"/>
<path d="M122.984 142.327L123.812 126.356H129.444C135.739 115.565 139.052 95.881 139.052 84.6579C139.052 77.7514 137.478 70.7585 135.739 67.2189H167.625V126.356H175.493L174.665 142.327H173.506L171.766 127.651H127.788L124.144 142.327H122.984ZM160.585 68.5139H141.536C141.205 88.3702 138.223 111.766 130.935 126.356H160.585V68.5139Z" fill="#DAB582"/>
<path d="M235.853 127.651H228.316L219.04 106.5H190.964C187.982 113.924 185.332 121.349 183.841 127.651H179.203C181.108 123.766 184.918 116.083 189.224 106.5L207.197 66.3556H208.522L235.853 127.651ZM195.188 96.8307C193.945 99.5933 192.703 102.356 191.543 105.205H218.46L205.043 74.5571L195.188 96.8307Z" fill="#DAB582"/>
<path d="M252.83 127.651H245.79V67.2189C249.02 67.1326 256.474 67.0462 260.119 67.0462C270.637 67.0462 282.398 70.6722 282.398 84.0536C282.398 96.5717 273.122 102.701 258.379 102.701C256.143 102.701 254.57 102.615 252.83 102.529V127.651ZM252.83 68.5139V101.061C254.487 101.32 256.226 101.406 257.965 101.406C269.56 101.406 274.944 94.6724 274.944 84.5716C274.944 74.1254 269.063 68.3412 257.634 68.3412C255.729 68.3412 254.57 68.3412 252.83 68.5139Z" fill="#DAB582"/>
<path d="M330.218 67.2189H336.015C336.015 67.2189 325.414 76.2837 317.049 85.0896L309.181 93.3774L338.169 127.651H329.141L303.715 97.176L314.979 85.6076C321.19 79.219 326.822 72.1398 330.218 67.2189ZM294.439 127.651V67.2189H301.479V127.651H294.439Z" fill="#DAB582"/>
<path d="M348.287 128.083H347.293V67.2189H354.333V118.241L394.253 66.7872H395.247V127.651H388.207V76.7154L348.287 128.083Z" fill="#DAB582"/>
<path d="M69.2393 22.1399H71.5587L81.1825 0H84.0559L93.6797 22.1399H95.9991V29.8117H93.3681V24.6972H71.8702V29.8117H69.2393V22.1399ZM82.6019 3.15283L74.432 22.2099H90.7025L82.6019 3.15283Z" fill="white"/>
<path d="M97.4534 24.6972L108.497 0H111.058L122.102 24.6972H119.159L116.32 18.2163H103.131L100.257 24.6972H97.4534ZM104.204 15.7291H115.247L109.743 3.22289L104.204 15.7291Z" fill="white"/>
<path d="M126.188 24.6972V0.175157H135.258C140.727 0.175157 144.328 3.1178 144.328 7.95214V8.0222C144.328 13.3119 139.966 16.0444 134.808 16.0444H128.923V24.6972H126.188ZM128.923 13.5221H134.912C138.927 13.5221 141.558 11.3502 141.558 8.12729V8.05723C141.558 4.55409 138.962 2.73245 135.05 2.73245H128.923V13.5221Z" fill="white"/>
<path d="M169.113 24.6972H166.378V4.48402L150.87 24.6972H148.619V0.175157H151.354V19.9329L166.517 0.175157H169.113V24.6972Z" fill="white"/>
<path d="M181.577 24.6972V2.73245H173.407V0.175157H192.482V2.73245H184.312V24.6972H181.577Z" fill="white"/>
<path d="M196.762 24.6972V0.175157H214.278V2.69742H199.496V11.0699H212.721V13.5922H199.496V22.1749H214.452V24.6972H196.762Z" fill="white"/>
<path d="M122.311 55.3624H119.592V35.4357L104.174 55.3624H101.938V31.1879H104.656V50.6656L119.73 31.1879H122.311V55.3624Z" fill="white"/>
<path d="M128.506 36.3336L126.82 34.4687C129.023 32.5002 131.982 30.7734 136.353 30.7734C141.48 30.7734 144.956 33.3636 144.956 37.197V37.266C144.956 40.0634 143.27 42.1355 140.104 43.0679C143.304 43.7586 145.507 45.7617 145.507 48.8007V48.8353C145.507 52.7723 141.859 55.7768 136.009 55.7768C131.81 55.7768 128.747 54.3264 126.476 52.3579L128.093 50.3894C130.193 52.0816 132.67 53.3248 136.043 53.3248C139.966 53.3248 142.685 51.4254 142.685 48.7662V48.6971C142.685 45.8653 140.069 44.3803 135.837 44.3803H131.707V41.9973H135.871C139.45 41.9973 142.134 40.4778 142.134 37.5078V37.4732C142.134 34.9522 139.863 33.2254 136.284 33.2254C132.98 33.2254 130.502 34.6068 128.506 36.3336Z" fill="white"/>
<path d="M150.434 55.3624V31.1879H153.153V39.9252H159.382C164.785 39.9252 168.467 42.619 168.467 47.4539V47.523C168.467 52.5996 164.337 55.3624 159.003 55.3624H150.434ZM153.153 52.8414H159.107C163.03 52.8414 165.714 50.8383 165.714 47.6266V47.5575C165.714 44.173 163.133 42.4118 159.279 42.4118H153.153V52.8414ZM173.113 55.3624V31.1879H175.832V55.3624H173.113Z" fill="white"/>
<path d="M192.954 55.7768C186.003 55.7768 180.875 50.2858 180.875 43.3442V43.2751C180.875 36.4372 185.968 30.7734 193.058 30.7734C197.428 30.7734 200.044 32.3275 202.453 34.6068L200.594 36.6099C198.564 34.6759 196.292 33.2945 193.023 33.2945C187.689 33.2945 183.697 37.6459 183.697 43.2061V43.2751C183.697 48.8698 187.723 53.2558 193.023 53.2558C196.327 53.2558 198.495 51.978 200.801 49.7677L202.59 51.529C200.078 54.0846 197.325 55.7768 192.954 55.7768Z" fill="white"/>
<path d="M206.795 55.3624V31.1879H209.514V41.7901H213.437L223.486 31.1879H227.031L215.743 42.8262L227.547 55.3624H223.933L213.54 44.2421H209.514V55.3624H206.795Z" fill="white"/>
<path d="M228.206 55.3624L239.184 31.0152H241.73L252.708 55.3624H249.783L246.961 48.9734H233.85L230.993 55.3624H228.206ZM234.916 46.5214H245.894L240.423 34.1924L234.916 46.5214Z" fill="white"/>
<path d="M256.771 55.3624V31.1879H259.489V41.9283H273.393V31.1879H276.111V55.3624H273.393V44.4839H259.489V55.3624H256.771Z" fill="white"/>
<path d="M282.229 55.3624V31.1879H284.948V41.9283H298.851V31.1879H301.57V55.3624H298.851V44.4839H284.948V55.3624H282.229Z" fill="white"/>
<path d="M307.687 55.3624V31.1879H310.406V39.9252H316.635C322.038 39.9252 325.72 42.619 325.72 47.4539V47.523C325.72 52.5996 321.59 55.3624 316.256 55.3624H307.687ZM310.406 52.8414H316.359C320.283 52.8414 322.967 50.8383 322.967 47.6266V47.5575C322.967 44.173 320.386 42.4118 316.531 42.4118H310.406V52.8414ZM330.366 55.3624V31.1879H333.085V55.3624H330.366Z" fill="white"/>
<path d="M339.195 55.3624V31.1879H356.608V33.6744H341.913V41.9283H355.06V44.4148H341.913V52.8759H356.78V55.3624H339.195Z" fill="white"/>
</svg>
